<svg width="49" height="52" fill="none" xmlns="http://www.w3.org/2000/svg"><path d="M3.391 21V0h4.02l12.39 15.12h-1.95V0h4.8v21h-3.99L6.241 5.88h1.95V21h-4.8Zm21.469 0 9.36-21h4.8l9.39 21h-5.1L35.63 2.46h1.92L29.84 21h-4.98Zm4.68-4.5 1.29-3.69h10.8l1.32 3.69H29.54ZM.843 51V30h4.02l8.94 14.82h-2.13L20.462 30h3.99l.06 21h-4.56l-.03-14.01h.84l-7.02 11.79h-2.19l-7.17-11.79h1.02V51H.843Zm37.982.36c-2.98 0-5.31-.83-6.99-2.49-1.68-1.66-2.52-4.03-2.52-7.11V30h4.86v11.58c0 2 .41 3.44 1.23 4.32.82.88 1.97 1.32 3.45 1.32 1.48 0 2.63-.44 3.45-1.32.82-.88 1.23-2.32 1.23-4.32V30h4.8v11.76c0 3.08-.84 5.45-2.52 7.11-1.68 1.66-4.01 2.49-6.99 2.49Z" fill="#0F0E08"/></svg>